HIERARCHY
ROOT Hips
{
	OFFSET	0.00	0.00	0.00
	CHANNELS 6 Xposition Yposition Zposition Zrotation Xrotation Yrotation
	JOINT LeftUpperLeg
	{
		OFFSET	 0.100000	-0.066564	-0.000554
		CHANNELS 3 Zrotation Xrotation Yrotation
		JOINT LeftLowerLeg
		{
			OFFSET	 0.002447	-0.463436	-0.005172
			CHANNELS 3 Zrotation Xrotation Yrotation
			JOINT LeftFoot
			{
				OFFSET	-0.002447	-0.420480	-0.020576
				CHANNELS 3 Zrotation Xrotation Yrotation
				JOINT LeftToes
				{
					OFFSET	 0.003734	-0.104922	 0.126407
					CHANNELS 3 Zrotation Xrotation Yrotation
					End Site
					{
						OFFSET	 0.000000	 0.000000	 0.059955
					}
				}
			}
		}
	}
	JOINT RightUpperLeg
	{
		OFFSET	-0.100000	-0.066564	-0.000554
		CHANNELS 3 Zrotation Xrotation Yrotation
		JOINT RightLowerLeg
		{
			OFFSET	-0.002447	-0.463436	-0.005146
			CHANNELS 3 Zrotation Xrotation Yrotation
			JOINT RightFoot
			{
				OFFSET	 0.002447	-0.420479	-0.020602
				CHANNELS 3 Zrotation Xrotation Yrotation
				JOINT RightToes
				{
					OFFSET	-0.003734	-0.104922	 0.126407
					CHANNELS 3 Zrotation Xrotation Yrotation
					End Site
					{
						OFFSET	-0.000000	 0.000000	 0.059955
					}
				}
			}
		}
	}
	JOINT Spine
	{
		OFFSET	 0.000000	 0.099235	-0.012273
		CHANNELS 3 Zrotation Xrotation Yrotation
		JOINT Chest
		{
			OFFSET	-0.000001	 0.116455	-0.014223
			CHANNELS 3 Zrotation Xrotation Yrotation
			JOINT UpperChest
			{
				OFFSET	 0.000001	 0.133602	-0.016265
				CHANNELS 3 Zrotation Xrotation Yrotation
				JOINT LeftShoulder
				{
					OFFSET	 0.061058	 0.091105	 0.007056
					CHANNELS 3 Zrotation Xrotation Yrotation
					JOINT LeftUpperArm
					{
						OFFSET	 0.133942	-0.002659	-0.026009
						CHANNELS 3 Zrotation Xrotation Yrotation
						JOINT LeftLowerArm
						{
							OFFSET	 0.274047	 0.000000	 0.000000
							CHANNELS 3 Zrotation Xrotation Yrotation
							JOINT LeftHand
							{
								OFFSET	 0.276145	 0.000000	 0.000000
								CHANNELS 3 Zrotation Xrotation Yrotation
								End Site
								{
									OFFSET	 0.165687	 0.000000	 0.000000
								}
							}
						}
					}
				}
				JOINT Neck
				{
					OFFSET	 0.000000	 0.150325	 0.007929
					CHANNELS 3 Zrotation Xrotation Yrotation
					JOINT Head
					{
						OFFSET	 0.000000	 0.103218	 0.031424
						CHANNELS 3 Zrotation Xrotation Yrotation
						End Site
						{
							OFFSET	 0.000000	 0.061931	 0.018855
						}
					}
				}
				JOINT RightShoulder
				{
					OFFSET	-0.061057	 0.091105	 0.007056
					CHANNELS 3 Zrotation Xrotation Yrotation
					JOINT RightUpperArm
					{
						OFFSET	-0.133943	-0.002660	-0.026009
						CHANNELS 3 Zrotation Xrotation Yrotation
						JOINT RightLowerArm
						{
							OFFSET	-0.274047	 0.000000	 0.000000
							CHANNELS 3 Zrotation Xrotation Yrotation
							JOINT RightHand
							{
								OFFSET	-0.276145	 0.000000	 0.000000
								CHANNELS 3 Zrotation Xrotation Yrotation
								End Site
								{
									OFFSET	-0.165687	 0.000000	 0.000000
								}
							}
						}
					}
				}
			}
		}
	}
}
MOTION
Frames:    16
Frame Time: 0.03333334
 0.243890	 0.996010	 0.294070	-4.867109	-10.507720	-16.235650	 3.910102	 6.032487	 34.161200	-0.261112	 37.280620	 0.088035	 9.173299	-29.902610	 25.666110	 0.000075	 1.093655	-0.000585	-26.184100	-4.483741	-28.264490	 0.011043	 17.094860	 0.009053	-6.588286	 21.959860	 4.384369	-0.000398	-1.901438	-0.000047	 1.581189	-0.720047	 1.547450	-0.000000	 0.000000	 0.000000	 3.185411	-1.397505	 3.121987	 5.312587	-3.142511	-16.671690	-59.425720	-31.416040	-43.992700	-24.720460	-6.639445	-44.246050	 44.492150	-22.313810	-6.006601	 0.439451	-0.136378	-4.937812	 0.318147	-0.126362	-4.903030	 2.919216	-4.621056	-6.556390	 71.621060	 7.847997	 32.686460	 9.653754	 18.879860	 80.231720	-27.468640	-20.702710	 15.815830
 0.243460	 0.996360	 0.294360	-4.930431	-10.354940	-16.340280	 4.004011	 5.998040	 34.421350	-0.163841	 37.165020	 0.054960	 9.068255	-29.869700	 25.464910	-0.000029	 1.088546	-0.000546	-26.035740	-4.673893	-28.046080	 0.038159	 17.119450	 0.005705	-6.802792	 22.100520	 4.298032	 0.000596	-1.984479	-0.000212	 1.622640	-0.702035	 1.446770	-0.000000	 0.000000	 0.000000	 3.267638	-1.364934	 2.917084	 5.590792	-3.272935	-16.886950	-58.999730	-32.205890	-44.165280	-24.674160	-8.361056	-43.264730	 43.527490	-22.745980	-5.395784	 0.298501	-0.130009	-4.446371	 0.215877	-0.156410	-4.239438	 2.932707	-4.500947	-6.899184	 71.671220	 7.725292	 32.376690	 9.831726	 19.781800	 80.548390	-26.118760	-19.585070	 16.241830
 0.244720	 0.996470	 0.295050	-4.907203	-9.974415	-16.791260	 3.899586	 5.807057	 34.945020	-0.166727	 36.970580	 0.056390	 9.118761	-29.877740	 25.477210	-0.000027	 1.092910	-0.000574	-26.109090	-5.396793	-28.341490	-0.029417	 17.307810	 0.015666	-7.138643	 22.792480	 4.788549	 0.000760	-2.633588	-0.000195	 1.820562	-0.574543	 1.054011	-0.000000	 0.000000	 0.000000	 3.658392	-1.117457	 2.131579	 5.832160	-3.917815	-16.394000	-57.613860	-33.569410	-44.378640	-23.408620	-11.789850	-40.923460	 41.662690	-22.478920	-3.648034	 0.050491	-0.238768	-3.112463	-0.192624	-0.362024	-2.671458	 2.888197	-4.652620	-6.413742	 71.833770	 7.683288	 31.146210	 10.487410	 21.705150	 81.086270	-25.143610	-19.129890	 16.395420
 0.245150	 0.996480	 0.295920	-5.009358	-9.789724	-17.054490	 3.963043	 5.782261	 35.136780	-0.223188	 36.904370	 0.074190	 9.133686	-29.941180	 25.554650	-0.000317	 1.101702	 0.000696	-25.998570	-5.672922	-28.006780	 0.007908	 17.320390	 0.010475	-7.269555	 23.117400	 4.856327	 0.000031	-2.945218	-0.000356	 1.896268	-0.548166	 0.916286	-0.000000	 0.000000	 0.000000	 3.807868	-1.069103	 1.853004	 6.063601	-4.366446	-16.037450	-56.973710	-34.125510	-44.403040	-22.381370	-13.361560	-39.407980	 40.636850	-22.088510	-3.444232	-0.098040	-0.380388	-2.322774	-0.247800	-0.424273	-2.041949	 3.049485	-4.716574	-6.144917	 71.911020	 7.591113	 30.476440	 11.061450	 22.700520	 81.105490	-24.433970	-19.602630	 17.222430
 0.246340	 0.996220	 0.296870	-5.075368	-9.679008	-17.377680	 3.942287	 5.824540	 35.594060	-0.192793	 36.867010	 0.064781	 9.117487	-30.086020	 25.437760	-0.000328	 1.120646	-0.000089	-25.999240	-5.975748	-27.537630	 0.049868	 17.408110	 0.003594	-7.229200	 23.470540	 4.790046	-0.000214	-3.197596	 0.000314	 1.971846	-0.497353	 0.802339	-0.000000	 0.000000	 0.000000	 3.959487	-0.968467	 1.624645	 6.525991	-4.707191	-15.899890	-56.099850	-34.741630	-43.997420	-21.729940	-14.924020	-37.910040	 40.253190	-22.446450	-3.650974	-0.180676	-0.393358	-1.671044	-0.333357	-0.489438	-1.441108	 3.317750	-4.655557	-6.192541	 71.923520	 7.426542	 29.891610	 11.297680	 23.943300	 81.635060	-24.160670	-19.592970	 17.891450
 0.246340	 0.996220	 0.296870	-5.075368	-9.679008	-17.377680	 3.942287	 5.824540	 35.594060	-0.192793	 36.867010	 0.064781	 9.117487	-30.086020	 25.437760	-0.000328	 1.120646	-0.000089	-25.999240	-5.975748	-27.537630	 0.049868	 17.408110	 0.003594	-7.229200	 23.470540	 4.790046	-0.000214	-3.197596	 0.000314	 1.971846	-0.497353	 0.802339	-0.000000	 0.000000	 0.000000	 3.959487	-0.968467	 1.624645	 6.525991	-4.707191	-15.899890	-56.099850	-34.741630	-43.997420	-21.729940	-14.924020	-37.910040	 40.253190	-22.446450	-3.650974	-0.180676	-0.393358	-1.671044	-0.333357	-0.489438	-1.441108	 3.317750	-4.655557	-6.192541	 71.923520	 7.426542	 29.891610	 11.297680	 23.943300	 81.635060	-24.160670	-19.592970	 17.891450
 0.248690	 0.995280	 0.297890	-4.981362	-9.372197	-18.000300	 3.748235	 5.630048	 36.360860	-0.193646	 36.921880	 0.065111	 9.130981	-30.275760	 25.396710	 0.000140	 1.076471	 0.000414	-26.269850	-6.778209	-27.596840	 0.004891	 17.685580	 0.010349	-6.967468	 24.198690	 4.966231	-0.000309	-4.116067	-0.000509	 2.022127	-0.533906	 0.746631	-0.000000	 0.000000	 0.000000	 4.057864	-1.042259	 1.515823	 6.777742	-4.866696	-15.635250	-54.628190	-35.546280	-43.593230	-20.428910	-16.712700	-36.711380	 40.046730	-22.454630	-3.418090	-0.373403	-0.487632	-0.833180	-0.468877	-0.411751	-0.723166	 3.572166	-4.785793	-6.128229	 72.050080	 7.152629	 29.251670	 11.485300	 25.432570	 82.178970	-23.006980	-18.839340	 18.533900
 0.250980	 0.994210	 0.299060	-5.032373	-9.080782	-18.718640	 3.642765	 5.442043	 36.996110	-0.171676	 37.052180	 0.056751	 9.201075	-30.478110	 25.606610	-0.000118	 1.032533	-0.000117	-26.306060	-7.416172	-27.443690	-0.005410	 17.782850	 0.011436	-6.834913	 24.438220	 5.108672	-0.000046	-4.166551	 0.000550	 2.114660	-0.574379	 0.693045	-0.000000	 0.000000	 0.000000	 4.246232	-1.122938	 1.409599	 7.199453	-5.063128	-15.244150	-53.580280	-36.291290	-43.168270	-19.599280	-17.957660	-35.699720	 39.802170	-22.108680	-3.417989	-0.382522	-0.481730	-0.184158	-0.566865	-0.396278	-0.074276	 3.874625	-4.698851	-6.053417	 72.082730	 6.908172	 28.728610	 11.711110	 26.687380	 82.653100	-22.718720	-18.395930	 18.562610
 0.252750	 0.993380	 0.300210	-5.046331	-8.969400	-19.154250	 3.495061	 5.372015	 37.268320	-0.177074	 37.158080	 0.059379	 9.283954	-30.599340	 25.873140	 0.000986	 0.973476	 0.000299	-26.338600	-7.720789	-27.065840	 0.029855	 17.789240	 0.005813	-6.881907	 24.492900	 5.032554	 0.000179	-4.039607	 0.000169	 2.155054	-0.598608	 0.639059	-0.000000	 0.000000	 0.000000	 4.321933	-1.172826	 1.301067	 7.326591	-5.071586	-14.929220	-52.771780	-36.726600	-42.671860	-19.139830	-18.453090	-35.271330	 39.967170	-21.741630	-3.566837	-0.557430	-0.412281	 0.193982	-0.631115	-0.361252	 0.304879	 3.795131	-4.520484	-5.966110	 72.176270	 6.690776	 28.355240	 11.981210	 27.405910	 82.846630	-22.624020	-18.195960	 18.552880
 0.256340	 0.991240	 0.302110	-5.007432	-8.845543	-19.827380	 3.114448	 5.141859	 37.407790	-0.213706	 37.523620	 0.072831	 9.661477	-30.860030	 26.755200	-0.000033	 0.908302	 0.000140	-26.607770	-8.241965	-27.188220	 0.022883	 18.013420	 0.006711	-6.760994	 24.470700	 4.911303	-0.000303	-3.860324	 0.000757	 2.144441	-0.628906	 0.652776	-0.000000	 0.000000	 0.000000	 4.304052	-1.233368	 1.332298	 7.484538	-4.585330	-14.605440	-51.201010	-37.650090	-42.125330	-18.462500	-19.457010	-34.525270	 38.532620	-22.567460	-3.370462	-0.640980	-0.284076	 0.658373	-0.634458	-0.277431	 0.592937	 3.666423	-4.292155	-5.821429	 72.640740	 6.202238	 27.899370	 12.393080	 28.280720	 82.828720	-22.386520	-18.330850	 18.412520
 0.256340	 0.991240	 0.302110	-5.007432	-8.845543	-19.827380	 3.114448	 5.141859	 37.407790	-0.213706	 37.523620	 0.072831	 9.661477	-30.860030	 26.755200	-0.000033	 0.908302	 0.000140	-26.607770	-8.241965	-27.188220	 0.022883	 18.013420	 0.006711	-6.760994	 24.470700	 4.911303	-0.000303	-3.860324	 0.000757	 2.144441	-0.628906	 0.652776	-0.000000	 0.000000	 0.000000	 4.304052	-1.233368	 1.332298	 7.484538	-4.585330	-14.605440	-51.201010	-37.650090	-42.125330	-18.462500	-19.457010	-34.525270	 38.532620	-22.567460	-3.370462	-0.640980	-0.284076	 0.658373	-0.634458	-0.277431	 0.592937	 3.666423	-4.292155	-5.821429	 72.640740	 6.202238	 27.899370	 12.393080	 28.280720	 82.828720	-22.386520	-18.330850	 18.412520
 0.258550	 0.989850	 0.303310	-5.135952	-8.845918	-20.157030	 3.089262	 5.091917	 37.613270	-0.176801	 37.866850	 0.060138	 9.811897	-31.015600	 27.032250	-0.000306	 0.785817	-0.000799	-26.672430	-8.328578	-27.537490	-0.005811	 18.070230	 0.012112	-6.624690	 24.399870	 5.021758	-0.000072	-3.645816	 0.000009	 2.190157	-0.606614	 0.676437	-0.000000	 0.000000	 0.000000	 4.395064	-1.188118	 1.375547	 7.530250	-4.094869	-14.589130	-50.978520	-38.351300	-42.173060	-18.522400	-19.720200	-34.600040	 38.441520	-22.786590	-3.420590	-0.551538	-0.185207	 0.639717	-0.643662	-0.227475	 0.598069	 3.515064	-4.220615	-5.675082	 72.926530	 5.888577	 27.697100	 12.430810	 28.502570	 82.720890	-22.312620	-18.271020	 18.438190
 0.260700	 0.988390	 0.304640	-5.230151	-8.890269	-20.344240	 3.027115	 5.037390	 37.577810	-0.207180	 38.243170	 0.071411	 10.117680	-31.158750	 27.483610	 0.000244	 0.694232	-0.000186	-26.767310	-8.324485	-27.530810	 0.021515	 18.128640	 0.007506	-6.443643	 24.260370	 4.887426	 0.000815	-3.418357	-0.000078	 2.183376	-0.630398	 0.734931	-0.000000	 0.000000	 0.000000	 4.381198	-1.231825	 1.497220	 7.446490	-3.807393	-14.550210	-51.301480	-38.811570	-42.486510	-18.550490	-19.699600	-34.697540	 38.234410	-22.725400	-3.151817	-0.595956	-0.150374	 0.619320	-0.581357	-0.105280	 0.496959	 3.445509	-4.235299	-5.700537	 72.894810	 5.816730	 27.589790	 12.381380	 28.771640	 82.453580	-22.545910	-18.727500	 18.345230
 0.263150	 0.986770	 0.305380	-5.304512	-8.918716	-20.469070	 2.976081	 4.871380	 37.487110	-0.221801	 38.703450	 0.077240	 10.382660	-31.258990	 27.898750	-0.000712	 0.534852	 0.000078	-26.914810	-8.371753	-27.693940	 0.015763	 18.231490	 0.008476	-6.226789	 24.185190	 4.865329	-0.000249	-3.270784	-0.000137	 2.174106	-0.626424	 0.777744	-0.000000	 0.000000	 0.000000	 4.363214	-1.223456	 1.582733	 7.478210	-3.666741	-14.533170	-51.987960	-38.772710	-42.803310	-18.836740	-19.909390	-35.081910	 38.395970	-22.355270	-3.074387	-0.530804	-0.042205	 0.486940	-0.514225	-0.049804	 0.401539	 3.496394	-4.260034	-5.731644	 72.768720	 5.782627	 27.611560	 12.420670	 28.599890	 82.351310	-22.766650	-18.676170	 18.028300
 0.264830	 0.985590	 0.305640	-5.358498	-8.858790	-20.613840	 3.002841	 4.651134	 37.529790	-0.222411	 39.113020	 0.079308	 10.567720	-31.399580	 28.147270	-0.000018	 0.449087	 0.000200	-26.989200	-8.523625	-27.813260	 0.011580	 18.310220	 0.008650	-6.037189	 24.206600	 4.836583	 0.000361	-3.263981	-0.000139	 2.178862	-0.652381	 0.841859	-0.000000	 0.000000	 0.000000	 4.376202	-1.275043	 1.710073	 7.501839	-3.674674	-14.490270	-52.157930	-38.857590	-42.827160	-19.021320	-19.590340	-35.046360	 38.625900	-22.591110	-3.182565	-0.499390	-0.033050	 0.455098	-0.510745	 0.019769	 0.329295	 3.405133	-4.293350	-5.647513	 72.868690	 5.667402	 27.694590	 12.415920	 28.608540	 81.629100	-22.960550	-18.576800	 17.851670
 0.265830	 0.984910	 0.305890	-5.439530	-8.895965	-20.646570	 3.058662	 4.586520	 37.510010	-0.225396	 39.400440	 0.080530	 10.586980	-31.507170	 28.297880	-0.000105	 0.417174	 1.078228	-27.018610	-8.509150	-27.887170	 0.002947	 18.370400	 0.010248	-5.965056	 24.209010	 4.875546	 0.000495	-3.236747	-0.000343	 2.181922	-0.643003	 0.872080	-0.000000	 0.000000	 0.000000	 4.382927	-1.256540	 1.773042	 7.489841	-3.579301	-14.605040	-52.183780	-38.811860	-42.791550	-19.036830	-19.530790	-35.110130	 38.616370	-22.652830	-3.387860	-0.507456	 0.094952	 0.341108	-0.513599	 0.077006	 0.276375	 3.321609	-4.194244	-5.723973	 72.930370	 5.627058	 27.756550	 12.403040	 28.488540	 81.636080	-22.756480	-18.359110	 17.476820
